<svg
    width="243"
    height="50"
    viewBox="0 0 243 50"
    fill="none"
    xmlns="http://www.w3.org/2000/svg"
>
    <g clip-path="url(#clip0_1128_24353)">
    <mask
        id="mask0_1128_24353"
        style="mask-type:alpha"
        maskUnits="userSpaceOnUse"
        x="-266"
        y="6"
        width="796"
        height="50"
    >
        <path
        d="M530 18.1328H515.244V20.9561H510.422V16.4068H503.117V14.8405H499.231V16.0956H470.78V13.7401H463.629V25.663H455.775V22.7604H444.271V19.939H428.724V22.161H425.617V18.6037H405.252V21.8216H384.573V24.4883H373.923V31.4694H367.703V17.5836H363.427V16.4852H356.122V17.8185H353.869V20.7212H352.156V17.9782H343.527V22.161H332.723V26.7635H329.768V17.8185H317.255V15.8596H312.122V18.2131H306.37V19.7011H296.966V26.7635H282.351V23.7022H280.175V26.8418H276.675V33.8228H275.2V30.4483H259.654V27.8589H249.082V33.1933H239.986V27.6239H238.974V13.4279H237.733V10.6808H236.413V8.09442H233.768V7.07231H231.824V8.0161H228.093V12.0162H217.288V9.81835H214.646V28.4864H211.534V30.8399H208.116V15.3877H205.159V14.211H203.607V16.5635H202.749V15.2321H200.107V12.7983H197.464V14.9952H195.989V16.4852H194.823V12.6417H191.947V14.9952H189.304V16.3305H187.047V12.4088H185.261V33.2716H178.81V23.3899H164.737V18.8386H161.862V20.2503H159.063V19.0736H155.8V28.9573H148.571V13.5835H146.237V10.7611H143.285V13.3495H139.864V27.8589H138.233V20.174H135.125V18.1328H132.558V20.0957H127.737V30.4483H123.151V12.958H120.509V10.7611H117.01V12.7983H115.845V8.79825H111.258V12.0162H109.858V10.2099H108.459V12.3284H106.595V13.7401H104.262V11.1517H98.1212V16.8014H96.178V17.9782H94.002V18.9169H85.9166V11.8575H83.2729V9.97699H80.2421V12.6417H74.879V20.0173H68.3488V17.9782H64.3858V20.0957H62.6167V17.0956L61.0426 15.5072H59.5262L57.8536 17.193V20.8547H55.6775V24.41H51.4796V12.0674H49.822V9.71393H48.1643V11.963H46.817V15.8325H45.6758V17.452H44.2768V20.6961H40.1317V21.663H37.2551V16.5635H30.104V19.3095H14.4019V15.703H11.8358V17.193H8.41602V18.7603H2.66391V22.161H-2.00064V19.8999H-6.08112V19.0736H-6.89801V18.0545H-7.75372V18.9581H-8.3746V17.8978H-8.99747V16.2914H-10.086V16.9169H-10.8233V17.5053H-12.676V18.6559H-16.6152V19.3898H-19.828V20.435H-22.3155V16.3556H-25.218V19.2834H-28.5343V15.4148H-38.5868V16.6699H-40.5569V11.963H-43.2523V16.1478H-45.3239V20.1208H-49.3676V21.6901H-54.4461V16.3556H-57.0371V20.8547H-59.3176V21.5857H-61.7006V22.8407H-62.8399V24.5134H-81.9121V20.7503H-86.5756V18.0284H-96.0072V16.6699H-100.981V15.7281H-106.371V17.193H-114.975V15.1006H-117.462V17.0876H-119.431V16.46H-122.437V14.5775H-128.863V13.7401H-131.661V16.9811H-133.423V18.2382H-135.082V20.0173H-137.155V21.2704H-139.537V17.4008H-141.509V21.2704H-144.512V20.2252H-147.934V22.161H-149.178V19.5977H-150.525V22.161H-152.079V25.7665H-199.965V21.0626H-204.11V19.5957H-239.349V11.4399H-241.216V9.76514L-243.702 9.87056V11.4399H-245.879V6H-248.262V11.4399H-258.005V18.9721H-261.011V20.1208H-266V56H530V18.1328Z"
        fill="#1A1A1A"
        />
    </mask>
    <g mask="url(#mask0_1128_24353)">
        <rect y="-42" width="243" height="92" fill="#F2F2F2" />
    </g>
    </g>
    <defs>
    <clipPath id="clip0_1128_24353">
        <rect width="243" height="50" fill="white" />
    </clipPath>
    </defs>
</svg>