<svg width="12" height="14" viewBox="0 0 12 14" fill="none" xmlns="http://www.w3.org/2000/svg">
<path d="M3.33329 10.3333C3.70148 10.3333 3.99996 10.0349 3.99996 9.66667C3.99996 9.29848 3.70148 9 3.33329 9C2.9651 9 2.66663 9.29848 2.66663 9.66667C2.66663 10.0349 2.9651 10.3333 3.33329 10.3333Z" fill="#1A1A1A"/>
<path d="M8.66667 10.3333C9.03486 10.3333 9.33333 10.0349 9.33333 9.66667C9.33333 9.29848 9.03486 9 8.66667 9C8.29848 9 8 9.29848 8 9.66667C8 10.0349 8.29848 10.3333 8.66667 10.3333Z" fill="#1A1A1A"/>
<path d="M0.466675 0.866715C0.466675 0.829896 0.496522 0.800049 0.533341 0.800049H11.4667C11.5035 0.800049 11.5333 0.829897 11.5333 0.866715V11.8001C11.5333 11.8369 11.5035 11.8667 11.4667 11.8667H0.533341C0.496522 11.8667 0.466675 11.8369 0.466675 11.8V0.866715Z" stroke="#1A1A1A" stroke-width="0.933333"/>
<path d="M0.333374 7.66663L11.6667 7.66663" stroke="#1A1A1A" stroke-width="0.933333"/>
<path d="M0 3L12 3" stroke="#1A1A1A" stroke-width="0.933333"/>
<path d="M3 12L3 13" stroke="#1A1A1A" stroke-linecap="round"/>
<path d="M9 12L9 13" stroke="#1A1A1A" stroke-linecap="round"/>
</svg>
