<svg width="14" height="14" viewBox="0 0 14 14" fill="none" xmlns="http://www.w3.org/2000/svg">
<path d="M2 6.06667C2 6.02985 2.02985 6 2.06667 6H11.9333C11.9702 6 12 6.02985 12 6.06667V12.9333C12 12.9702 11.9702 13 11.9333 13H2.06667C2.02985 13 2 12.9702 2 12.9333V6.06667Z" stroke="#1A1A1A" stroke-width="0.933333"/>
<path d="M4 8.06667C4 8.02985 4.02985 8 4.06667 8H9.93333C9.97015 8 10 8.02985 10 8.06667V12.9333C10 12.9702 9.97015 13 9.93333 13H4.06667C4.02985 13 4 12.9702 4 12.9333V8.06667Z" stroke="#1A1A1A" stroke-width="0.933333"/>
<path d="M1 5.93333C1 5.97015 1.02985 6 1.06667 6H2.93333C2.97015 6 3 5.97015 3 5.93333V3.06667C3 3.02985 2.97015 3 2.93333 3H1.06667C1.02985 3 1 3.02985 1 3.06667V5.93333Z" stroke="#1A1A1A" stroke-width="0.933333"/>
<path d="M11 5.93333C11 5.97015 11.0298 6 11.0667 6H12.9333C12.9702 6 13 5.97015 13 5.93333V3.06667C13 3.02985 12.9702 3 12.9333 3H11.0667C11.0298 3 11 3.02985 11 3.06667V5.93333Z" stroke="#1A1A1A" stroke-width="0.933333"/>
<path d="M3 5.93333C3 5.97015 3.02985 6 3.06667 6H10.9333C10.9702 6 11 5.97015 11 5.93333V1.06667C11 1.02985 10.9702 1 10.9333 1H3.06667C3.02985 1 3 1.02985 3 1.06667V5.93333Z" stroke="#1A1A1A" stroke-width="0.933333"/>
<path d="M6.70304 4.8674V4.27072H5.58564V4.25414L5.87155 4.00829C6.50829 3.47238 6.67266 3.19475 6.67266 2.8674C6.67266 2.3453 6.2431 2 5.57459 2C4.92404 2 4.49862 2.36464 4.5 2.95442H5.20719C5.2058 2.71271 5.35498 2.57459 5.57459 2.57459C5.79144 2.57459 5.94752 2.70994 5.94752 2.93094C5.94752 3.13398 5.8163 3.26796 5.60083 3.45028L4.55111 4.33149V4.8674H6.70304Z" fill="#1A1A1A"/>
<path d="M9.05053 3.83702V2.03867H8.10854L6.96213 3.8384V4.41713H8.33782V4.8674H9.05053V4.41713H9.38064V3.83702H9.05053ZM8.33091 2.81492H8.35439V3.83702H7.69832V3.81492L8.33091 2.81492Z" fill="#1A1A1A"/>
</svg>
