<svg width="12" height="14" viewBox="0 0 12 14" fill="none" xmlns="http://www.w3.org/2000/svg">
<path d="M9.53345 11.8667L11.0001 13.3334" stroke="#1A1A1A" stroke-width="0.933333" stroke-linejoin="round"/>
<path d="M2.4 11.8667L1 13.3334" stroke="#1A1A1A" stroke-width="0.933333" stroke-linejoin="round"/>
<path d="M3.33341 10.3333C3.7016 10.3333 4.00008 10.0349 4.00008 9.66667C4.00008 9.29848 3.7016 9 3.33341 9C2.96522 9 2.66675 9.29848 2.66675 9.66667C2.66675 10.0349 2.96522 10.3333 3.33341 10.3333Z" fill="#1A1A1A"/>
<path d="M8.66667 10.3333C9.03486 10.3333 9.33333 10.0349 9.33333 9.66667C9.33333 9.29848 9.03486 9 8.66667 9C8.29848 9 8 9.29848 8 9.66667C8 10.0349 8.29848 10.3333 8.66667 10.3333Z" fill="#1A1A1A"/>
<path d="M0.466553 0.866593C0.466553 0.829774 0.4964 0.799927 0.533219 0.799927H11.4666C11.5034 0.799927 11.5332 0.829774 11.5332 0.866593V11.7999C11.5332 11.8367 11.5034 11.8666 11.4666 11.8666H0.533219C0.4964 11.8666 0.466553 11.8367 0.466553 11.7999V0.866593Z" stroke="#1A1A1A" stroke-width="0.933333"/>
<path d="M0.333252 7.66663L11.6666 7.66663" stroke="#1A1A1A" stroke-width="0.933333"/>
<path d="M6 0.799927V7.6666" stroke="#1A1A1A" stroke-width="0.933333"/>
</svg>
