<svg width="10" height="17" viewBox="0 0 10 17" fill="none" xmlns="http://www.w3.org/2000/svg">
  <path d="M4.18457 1.69117C4.15775 1.38464 4.22245 1.07705 4.37047 0.807288C4.51849 0.537528 4.74318 0.317725 5.01613 0.175679C5.28908 0.0336322 5.59803 -0.0242761 5.9039 0.00927798C6.20976 0.042832 6.49881 0.166341 6.73447 0.364184C6.97014 0.562026 7.14184 0.825314 7.22785 1.12075C7.31387 1.41618 7.31034 1.73049 7.21771 2.02392C7.12508 2.31734 6.94751 2.57671 6.70746 2.76921C6.46741 2.96171 6.17566 3.07869 5.86912 3.10537C5.82337 3.10537 5.77761 3.11119 5.73269 3.11119C5.34397 3.11042 4.96959 2.9643 4.68313 2.70154C4.39667 2.43878 4.21883 2.07838 4.18457 1.69117ZM5.60874 9.89682L6.04381 4.92635C6.06121 4.69656 6.01438 4.46647 5.90854 4.26176C5.80271 4.05706 5.64205 3.88581 5.44451 3.76715C5.24697 3.64848 5.02033 3.58708 4.7899 3.58979C4.55947 3.59251 4.33434 3.65923 4.13965 3.78252C4.01237 3.87069 3.05821 4.54119 2.35693 5.03033L1.63902 5.52946C1.51248 5.60831 1.41362 5.72461 1.35618 5.86221L0.0659421 8.63319C-0.0134968 8.80528 -0.0214843 9.00185 0.0437286 9.17981C0.108942 9.35778 0.242037 9.50265 0.413857 9.58267C0.585677 9.66269 0.782211 9.67134 0.960399 9.60673C1.13859 9.54212 1.2839 9.40952 1.3645 9.23797L2.58653 6.61339L3.48413 5.98533C3.42673 6.64001 3.25786 8.55666 3.23456 8.85697C3.20882 9.12836 3.27125 9.40083 3.41259 9.63394L7.98043 16.1567C8.05613 16.2647 8.15673 16.353 8.27372 16.4139C8.39072 16.4749 8.52066 16.5068 8.65258 16.5069C8.67671 16.5069 8.7 16.5069 8.72412 16.5069C8.86716 16.4943 9.00435 16.4443 9.12195 16.3619C9.23954 16.2795 9.33339 16.1676 9.39407 16.0375C9.45475 15.9073 9.48014 15.7635 9.46768 15.6205C9.45522 15.4774 9.40535 15.3402 9.32308 15.2225L5.60874 9.89682ZM4.23365 12.2394L3.2354 10.8119L0.148298 15.2208C0.0244878 15.3988 -0.0237562 15.6186 0.0141319 15.832C0.05202 16.0455 0.172952 16.2352 0.350445 16.3597V16.3597C0.487978 16.4559 0.651755 16.5076 0.819624 16.5077C0.842916 16.5077 0.867041 16.5077 0.890333 16.5077C1.00963 16.4975 1.12521 16.4611 1.22887 16.4011C1.33252 16.3412 1.42172 16.2591 1.49012 16.1609L4.23365 12.2394ZM6.55209 7.58087C7.25087 7.9078 8.96454 8.70723 8.98034 8.71389C9.07495 8.75779 9.17801 8.7805 9.28231 8.78044C9.30339 8.78044 9.32419 8.78044 9.34471 8.78044C9.50177 8.7667 9.64991 8.70153 9.76616 8.59502C9.88241 8.48851 9.96027 8.34663 9.98767 8.19136C10.0151 8.03609 9.99046 7.87613 9.91768 7.73627C9.84489 7.59641 9.728 7.48447 9.58512 7.41782L6.68519 6.06519L6.55209 7.58087Z" fill="#1A1A1A"/>
</svg>
